#!OML:ASF I:\Actors\actors\Patient Classification 1\Patient 1\Session 1\Subject1.ASF
:FULLY-SPECIFIED
:DEGREES
951
root -0.530148 17.5881 7.98502 7.60902 -1.71618 -6.84451
lowerback 3.38972 0.718007 5.63734
upperback -11.2936 1.65353 0.61691
thorax -14.1703 0.204105 -2.71533
lowerneck -15.8521 -3.60257 -1.77062
upperneck 24.8395 -6.70043 7.31632
head 10.9738 -2.35067 1.99036
rclavicle 9.83984e-015 -3.57812e-015
rhumerus -34.7554 19.2199 -94.3139
rradius 66.2885
rwrist 0.991958
rhand -1.1306 -29.8767
rfingers 7.12502
rthumb 24.507 301.671
lclavicle 9.83984e-015 -3.57812e-015
lhumerus -39.2174 -20.8351 95.4388
lradius 71.2195
lwrist 20.4966
lhand -15.8555 -1.82122
lfingers 7.12502
lthumb 10.3396 27.9046
rfemur -0.687009 27.2112 23.9183
rtibia 0.616819
rfoot -11.7639 -28.6193
rtoes 3.10472
lfemur 6.89831 -43.1466 -15.3833
ltibia -4.60397
lfoot -16.8195 51.9964
ltoes 8.81402
952
root -0.531114 17.5871 7.99069 7.63833 -1.68393 -6.86807
lowerback 3.76763 0.734691 5.85102
upperback -11.448 1.72985 0.566649
thorax -14.5929 0.195648 -2.91146
lowerneck -15.8059 -3.69947 -2.05782
upperneck 24.4247 -6.75081 7.42025
head 10.8269 -2.40086 2.06485
rclavicle 9.0447e-015 5.1684e-015
rhumerus -35.3448 16.1012 -93.9068
rradius 62.0612
rwrist 3.35041
rhand -1.55932 -32.8104
rfingers 7.12502
rthumb 24.096 298.683
lclavicle 9.0447e-015 5.1684e-015
lhumerus -39.6498 -18.9239 94.9406
lradius 68.1532
lwrist 18.0476
lhand -17.3705 -3.7968
lfingers 7.12502
lthumb 8.87779 25.9964
rfemur -0.622295 27.3367 23.9811
rtibia 0.535958
rfoot -11.7985 -28.7355
rtoes 3.25199
lfemur 7.08594 -43.5477 -15.4863
ltibia -4.72213
lfoot -17.0643 52.3247
ltoes 9.31386
953
root -0.53186 17.5861 7.99978 7.82369 -1.59739 -6.82132
lowerback 3.96467 0.740979 5.98375
upperback -11.6675 1.77415 0.520994
thorax -14.9858 0.180282 -3.04966
lowerneck -15.757 -3.76718 -2.2372
upperneck 24.1442 -6.7608 7.37641
head 10.7177 -2.43627 2.07521
rclavicle -9.64106e-015 8.74653e-015
rhumerus -35.9889 12.6074 -93.212
rradius 57.6591
rwrist 6.14442
rhand -2.51041 -36.2802
rfingers 7.12502
rthumb 23.1838 295.095
lclavicle -9.64106e-015 8.74653e-015
lhumerus -40.0328 -16.6289 94.2686
lradius 64.8521
lwrist 15.6321
lhand -18.9186 -4.96331
lfingers 7.12502
lthumb 7.38368 24.8878
rfemur -0.703773 27.6513 23.8872
rtibia 0.419403
rfoot -11.8786 -29.0427
rtoes 3.71393
lfemur 7.07723 -44.1519 -15.5426
ltibia -4.8263
lfoot -17.5885 52.7735
ltoes 10.1477
954
root -0.531939 17.5868 8.01335 8.1115 -1.4872 -6.77557
lowerback 3.99232 0.756227 6.14148
upperback -11.8999 1.82228 0.479742
thorax -15.2871 0.166279 -3.19399
lowerneck -15.7298 -3.85606 -2.30176
upperneck 23.8984 -6.77758 7.1178
head 10.6134 -2.48806 1.98833
rclavicle 4.57205e-015 1.19271e-015
rhumerus -36.6459 8.77093 -92.1571
rradius 53.0373
rwrist 8.83628
rhand -4.85654 -38.6206
rfingers 7.12502
rthumb 20.9312 292.489
lclavicle 4.57205e-015 1.19271e-015
lhumerus -40.4094 -13.9736 93.3875
lradius 61.3839
lwrist 13.1318
lhand -20.6835 -5.71174
lfingers 7.12502
lthumb 5.67989 24.1921
rfemur -0.855137 28.02 23.7446
rtibia 0.23877
rfoot -11.9232 -29.4154
rtoes 4.03557
lfemur 7.0128 -44.9883 -15.5732
ltibia -4.9405
lfoot -18.356 53.4111
ltoes 10.9768
955
root -0.532066 17.5883 8.02979 8.5073 -1.34993 -6.7123
lowerback 3.84116 0.803624 6.29289
upperback -12.1501 1.89599 0.401771
thorax -15.4916 0.164635 -3.37613
lowerneck -15.6725 -3.97106 -2.57864
upperneck 23.6317 -6.86539 7.19892
head 10.5223 -2.5521 2.04961
rclavicle 5.1684e-015 7.55382e-015
rhumerus -37.3977 4.56527 -90.749
rradius 48.1448
rwrist 11.0011
rhand -6.55767 -40.9025
rfingers 7.12502
rthumb 19.2962 290.035
lclavicle 5.1684e-015 7.55382e-015
lhumerus -40.7981 -11.0862 92.2673
lradius 57.6999
lwrist 10.6613
lhand -22.0968 -6.69389
lfingers 7.12502
lthumb 4.31532 23.2421
rfemur -1.10915 28.3265 23.5048
rtibia 0.00242285
rfoot -11.9316 -29.7833
rtoes 4.34747
lfemur 6.83948 -46.026 -15.5501
ltibia -5.05187
lfoot -19.2794 54.188
ltoes 11.7949
956
root -0.52873 17.5856 8.0495 8.91017 -1.07229 -6.89415
lowerback 3.55237 0.823881 6.73612
upperback -12.3686 1.96152 0.386469
thorax -15.5705 0.133734 -3.64468
lowerneck -15.4235 -4.13968 -2.90653
upperneck 23.06 -7.0161 7.37013
head 10.2939 -2.65121 2.14269
rclavicle 4.37326e-015 2.38542e-015
rhumerus -38.2329 -0.323659 -88.621
rradius 43.0934
rwrist 13.9771
rhand -8.06539 -41.9946
rfingers 7.12502
rthumb 17.8459 288.804
lclavicle 4.37326e-015 2.38542e-015
lhumerus -41.1542 -7.87512 90.8499
lradius 53.7587
lwrist 8.15661
lhand -23.1303 -7.51894
lfingers 7.12502
lthumb 3.31731 22.435
rfemur -1.26238 28.5872 23.587
rtibia -0.325653
rfoot -11.9494 -30.216
rtoes 4.72468
lfemur 6.62081 -46.9555 -15.1871
ltibia -5.17089
lfoot -19.9123 54.7862
ltoes 12.3073
957
root -0.523848 17.5807 8.07413 9.20112 -0.763427 -7.10296
lowerback 3.23127 0.808028 7.19755
upperback -12.4879 1.97762 0.437602
thorax -15.5123 0.0899758 -3.83821
lowerneck -15.2713 -4.09662 -2.83835
upperneck 22.6231 -6.86764 7.10966
head 10.0845 -2.62103 2.05838
rclavicle 8.74653e-015 -5.96354e-015
rhumerus -39.1263 -5.97089 -85.4183
rradius 37.8542
rwrist 17.8781
rhand -8.97541 -41.7304
rfingers 7.12502
rthumb 16.9701 288.991
lclavicle 8.74653e-015 -5.96354e-015
lhumerus -41.3776 -4.14016 89.0441
lradius 49.2219
lwrist 5.69669
lhand -24.2879 -9.34101
lfingers 7.12502
lthumb 2.19933 20.6274
rfemur -1.21557 28.9011 23.7998
rtibia -0.691886
rfoot -12.0637 -30.7262
rtoes 5.2352
lfemur 6.51384 -47.6924 -14.878
ltibia -5.23509
lfoot -20.4213 55.1805
ltoes 12.5323
958
root -0.524567 17.5765 8.0997 9.58746 -0.712993 -6.88895
lowerback 2.78466 0.872315 7.06061
upperback -12.6005 2.01661 0.442782
thorax -15.3576 0.130721 -3.75049
lowerneck -15.258 -4.17161 -3.0137
upperneck 22.2239 -6.84656 6.92323
head 9.93588 -2.65709 2.02218
rclavicle 4.57205e-015 -1.15295e-014
rhumerus -40.3659 -12.2923 -80.9844
rradius 32.3833
rwrist 22.6324
rhand -7.5664 -41.7317
rfingers 7.12502
rthumb 18.326 289.112
lclavicle 4.57205e-015 -1.15295e-014
lhumerus -41.4111 0.21677 86.7472
lradius 44.3706
lwrist 2.36923
lhand -25.5814 -9.43239
lfingers 7.12502
lthumb 0.949993 20.5452
rfemur -1.45951 29.2787 23.3829
rtibia -0.898499
rfoot -12.2382 -31.1074
rtoes 5.72648
lfemur 6.25771 -48.5134 -14.9733
ltibia -5.21107
lfoot -21.4954 55.7545
ltoes 13.2093
959
root -0.524714 17.5641 8.11408 10.1624 -0.857647 -6.75181
lowerback 2.32381 1.04358 6.9568
upperback -12.8072 2.21104 0.452711
thorax -15.2939 0.235957 -3.69867
lowerneck -15.1867 -4.17528 -3.05551
upperneck 21.9646 -6.74536 6.62948
head 9.81337 -2.65416 1.93962
rclavicle 1.04362e-014 -2.3059e-014
rhumerus -42.5687 -19.6824 -74.692
rradius 26.8371
rwrist 29.281
rhand -6.54799 -40.8992
rfingers 7.12502
rthumb 19.3055 290.039
lclavicle 1.04362e-014 -2.3059e-014
lhumerus -41.4509 5.03456 83.8735
lradius 38.8329
lwrist -0.605731
lhand -27.0367 -10.0209
lfingers 7.12502
lthumb -0.455558 19.9583
rfemur -2.22447 29.2437 22.8048
rtibia -0.849453
rfoot -12.2238 -30.8974
rtoes 5.7761
lfemur 5.61726 -49.1603 -14.6904
ltibia -5.17603
lfoot -22.6953 56.3349
ltoes 14.1388
